# xmcd
#
# Track frame offsets: 
#        150
#        15272
#        43384
#        81022
#        96372
#        112709
#        132944
#        150631
#        166035
#        185371
#        201611
#        216351
#        230655
#        246935
#
# Disc length: 3500 seconds
#
# Revision: 0
# Processed by: cddbd v1.5.2PL0 Copyright (c) Steve Scherf et al.
# Submitted via: ExactAudioCopy v1.3
#
DISCID=b90daa0e
DTITLE=Sister Sledge - An Introduction to Sister Sledge
DYEAR=2018
DGENRE=R&B
TTITLE0=Mama Never Told Me
TTITLE1=He's The Greatest Dancer
TTITLE2=We Are Family
TTITLE3=Lost in Music
TTITLE4=Got To Love Somebody
TTITLE5=Thinking of You
TTITLE6=All American Girls
TTITLE7=Love Don't You Go Through No Changes On Me
TTITLE8=Frankie
TTITLE9=Dancing On The Jagged Edge
TTITLE10=Thank You For Today
TTITLE11=Blockbuster Boy
TTITLE12=Cream of The Crop
TTITLE13=Reach Your Peak
EXTD=
EXTT0=
EXTT1=
EXTT2=
EXTT3=
EXTT4=
EXTT5=
EXTT6=
EXTT7=
EXTT8=
EXTT9=
EXTT10=
EXTT11=
EXTT12=
EXTT13=
PLAYORDER=
